<svg width="60" height="62" viewBox="0 0 60 62" fill="none" xmlns="http://www.w3.org/2000/svg">
<path d="M58.4875 40.4032H35.7719C35.1672 40.4032 34.6781 39.9141 34.6781 39.3095C34.6781 38.7048 35.1672 38.2157 35.7719 38.2157H57.3922V31.7798H36.8656V33.647C36.8656 34.2517 36.3765 34.7407 35.7719 34.7407C35.1672 34.7407 34.6781 34.2517 34.6781 33.647V30.686C34.6781 30.0813 35.1672 29.5923 35.7719 29.5923H58.4859C59.0906 29.5923 59.5797 30.0813 59.5797 30.686V39.3095C59.5812 39.9126 59.0906 40.4032 58.4875 40.4032Z" fill="#538AC1"/>
<path d="M23.8094 40.4032H1.09375C0.489063 40.4032 0 39.9141 0 39.3095V30.686C0 30.0813 0.489063 29.5923 1.09375 29.5923H9.77344C10.3781 29.5923 10.8672 30.0813 10.8672 30.686C10.8672 31.2907 10.3781 31.7798 9.77344 31.7798H2.1875V38.2157H22.7141V31.7798H16.7406C16.1359 31.7798 15.6469 31.2907 15.6469 30.686C15.6469 30.0813 16.1359 29.5923 16.7406 29.5923H23.8078C24.4125 29.5923 24.9016 30.0813 24.9016 30.686V39.3095C24.9031 39.9126 24.4125 40.4032 23.8094 40.4032Z" fill="#538AC1"/>
<path d="M58.4875 54.7924H35.7719C35.1672 54.7924 34.6781 54.3033 34.6781 53.6986V45.0752C34.6781 44.4705 35.1672 43.9814 35.7719 43.9814H58.4859C59.0906 43.9814 59.5797 44.4705 59.5797 45.0752V53.6986C59.5812 54.3033 59.0906 54.7924 58.4875 54.7924ZM36.8656 52.6049H57.3922V46.1689H36.8656V52.6049Z" fill="#538AC1"/>
<path d="M23.8094 54.7924C23.2047 54.7924 22.7156 54.3033 22.7156 53.6986V46.1689H2.1875V52.6049H18.9031C19.5078 52.6049 19.9969 53.0939 19.9969 53.6986C19.9969 54.3033 19.5078 54.7924 18.9031 54.7924H1.09375C0.489063 54.7924 0 54.3033 0 53.6986V45.0752C0 44.4705 0.489063 43.9814 1.09375 43.9814H23.8078C24.4125 43.9814 24.9016 44.4705 24.9016 45.0752V53.6986C24.9031 54.3033 24.4125 54.7924 23.8094 54.7924Z" fill="#538AC1"/>
<path d="M58.4875 61.9812H1.09375C0.489063 61.9812 0 61.4922 0 60.8875V26.0469C0 25.7 0.164063 25.3734 0.443751 25.1672C5.0375 21.7719 7.77969 16.3359 7.77969 10.6234V1.09375C7.77969 0.489063 8.26875 0 8.87344 0H17.7219C18.3266 0 18.8156 0.489063 18.8156 1.09375C18.8156 7.14531 23.7391 12.0703 29.7922 12.0703C34.075 12.0703 37.9953 9.55312 39.7781 5.65625C40.0297 5.10625 40.6781 4.86562 41.2281 5.11719C41.7781 5.36875 42.0187 6.01719 41.7672 6.56719C39.6281 11.2391 34.9281 14.2594 29.7922 14.2594C22.9016 14.2594 17.2313 8.93906 16.6734 2.18906H9.96719V10.625C9.96719 16.8422 7.07031 22.7672 2.18906 26.5906V59.7953H57.3938V26.5891C55.0563 24.7562 53.1234 22.4047 51.7875 19.7547C50.3672 16.9359 49.6156 13.7781 49.6156 10.625V2.1875H41.8609C41.2563 2.1875 40.7672 1.69844 40.7672 1.09375C40.7672 0.489063 41.2563 0 41.8609 0H50.7094C51.3141 0 51.8031 0.489063 51.8031 1.09375V10.6234C51.8031 13.4375 52.4734 16.2531 53.7406 18.7687C55.0078 21.2797 56.875 23.4922 59.1391 25.1672C59.4172 25.3734 59.5828 25.7 59.5828 26.0469V60.8875C59.5813 61.4922 59.0906 61.9812 58.4875 61.9812Z" fill="#414042"/>
<path d="M29.7906 61.9813C29.186 61.9813 28.6969 61.4923 28.6969 60.8876V13.1626C28.6969 12.5579 29.186 12.0688 29.7906 12.0688C30.3953 12.0688 30.8844 12.5579 30.8844 13.1626V60.8876C30.8844 61.4923 30.3953 61.9813 29.7906 61.9813Z" fill="#414042"/>
<path d="M13.1782 31.7796C13.1063 31.7796 13.0344 31.7718 12.9641 31.7577C12.8953 31.7436 12.8266 31.7218 12.7594 31.6952C12.6938 31.6671 12.6297 31.6343 12.5703 31.5952C12.511 31.5546 12.4547 31.5093 12.4047 31.4593C12.2016 31.2546 12.0844 30.9733 12.0844 30.6858C12.0844 30.614 12.0922 30.5421 12.1063 30.4718C12.1204 30.4015 12.1407 30.3327 12.1688 30.2671C12.1954 30.2015 12.2297 30.1374 12.2688 30.078C12.3079 30.0187 12.3547 29.9624 12.4047 29.9124C12.4547 29.8608 12.511 29.8155 12.5703 29.7765C12.6297 29.7358 12.6938 29.703 12.7594 29.6749C12.8266 29.6483 12.8953 29.6265 12.9641 29.6124C13.1063 29.5843 13.25 29.5843 13.3922 29.6124C13.461 29.6265 13.5313 29.6483 13.5969 29.6749C13.6625 29.703 13.7266 29.7358 13.786 29.7765C13.8454 29.8155 13.9016 29.8608 13.9516 29.9124C14.1547 30.1155 14.2719 30.3983 14.2719 30.6858C14.2719 30.9733 14.1547 31.2546 13.9516 31.4593C13.9016 31.5093 13.8454 31.5546 13.786 31.5952C13.7266 31.6343 13.6625 31.6671 13.5969 31.6952C13.5313 31.7218 13.461 31.7436 13.3922 31.7577C13.3219 31.7718 13.25 31.7796 13.1782 31.7796Z" fill="#538AC1"/>
<path d="M44.1391 22.6079H37.4031C36.7984 22.6079 36.3094 22.1188 36.3094 21.5142C36.3094 20.9095 36.7984 20.4204 37.4031 20.4204H44.1391C44.7438 20.4204 45.2328 20.9095 45.2328 21.5142C45.2328 22.1188 44.7422 22.6079 44.1391 22.6079Z" fill="#414042"/>
<path d="M15.5813 22.6079C15.2922 22.6079 15.011 22.4907 14.8079 22.2876C14.6032 22.0829 14.4875 21.8016 14.4875 21.5141C14.4875 21.2251 14.6032 20.9438 14.8079 20.7407C15.061 20.486 15.4407 20.3704 15.7938 20.4407C15.8641 20.4547 15.9329 20.4766 15.9985 20.5032C16.0657 20.5313 16.1282 20.5641 16.1875 20.6047C16.2469 20.6438 16.3032 20.6891 16.3547 20.7407C16.5579 20.9438 16.675 21.2266 16.675 21.5141C16.675 21.8016 16.5579 22.0829 16.3547 22.2876C16.3032 22.3376 16.2469 22.3829 16.1875 22.4235C16.1282 22.4626 16.0657 22.4969 15.9985 22.5235C15.9329 22.5516 15.8641 22.5719 15.7938 22.586C15.7235 22.6001 15.6516 22.6079 15.5813 22.6079Z" fill="#414042"/>
<path d="M19.7234 22.6079C19.6516 22.6079 19.5797 22.6001 19.5094 22.586C19.4391 22.5719 19.3703 22.5516 19.3047 22.5235C19.2391 22.4969 19.175 22.4626 19.1156 22.4235C19.0563 22.3829 19 22.3376 18.95 22.2876C18.9 22.236 18.8531 22.1813 18.8141 22.1204C18.775 22.061 18.7406 21.9985 18.7141 21.9313C18.6859 21.8657 18.6656 21.7969 18.6516 21.7266C18.6375 21.6563 18.6297 21.5844 18.6297 21.5141C18.6297 21.2251 18.7469 20.9438 18.95 20.7407C19 20.6891 19.0563 20.6438 19.1156 20.6047C19.175 20.5641 19.2391 20.5313 19.3047 20.5032C19.3703 20.4766 19.4391 20.4547 19.5094 20.4407C19.8656 20.3704 20.2422 20.486 20.4969 20.7407C20.7 20.9438 20.8172 21.2251 20.8172 21.5141C20.8172 21.5844 20.8094 21.6563 20.7953 21.7266C20.7813 21.7969 20.7609 21.8657 20.7328 21.9313C20.7063 21.9985 20.6719 22.061 20.6328 22.1204C20.5922 22.1813 20.5469 22.236 20.4969 22.2876C20.4469 22.3376 20.3906 22.3829 20.3297 22.4235C20.2719 22.4626 20.2078 22.4969 20.1422 22.5235C20.075 22.5516 20.0063 22.5719 19.9375 22.586C19.8672 22.6001 19.7953 22.6079 19.7234 22.6079Z" fill="#414042"/>
<path d="M23.8094 22.6077C23.7375 22.6077 23.6656 22.5999 23.5953 22.5858C23.525 22.5718 23.4563 22.5515 23.3906 22.5233C23.325 22.4968 23.2609 22.4624 23.2016 22.4233C23.1422 22.3827 23.086 22.3374 23.036 22.2874C22.8313 22.0827 22.7156 21.8015 22.7156 21.514C22.7156 21.2249 22.8313 20.9437 23.036 20.7405C23.086 20.689 23.1422 20.6437 23.2016 20.6046C23.2609 20.564 23.325 20.5312 23.3906 20.503C23.4563 20.4765 23.525 20.4546 23.5953 20.4405C23.736 20.4124 23.8813 20.4124 24.0234 20.4405C24.0922 20.4546 24.1609 20.4765 24.2266 20.503C24.2938 20.5312 24.3563 20.564 24.4156 20.6046C24.4766 20.6437 24.5313 20.689 24.5828 20.7405C24.7859 20.9437 24.9031 21.2249 24.9031 21.514C24.9031 21.8015 24.7859 22.0827 24.5828 22.2874C24.5313 22.3374 24.4766 22.3827 24.4156 22.4233C24.3563 22.4624 24.2938 22.4968 24.2266 22.5233C24.1609 22.5515 24.0922 22.5718 24.0234 22.5858C23.9516 22.5999 23.8797 22.6077 23.8094 22.6077Z" fill="#414042"/>
</svg>
