<svg width="99" height="56" viewBox="0 0 99 56" fill="none" xmlns="http://www.w3.org/2000/svg">
<path d="M22.2535 34.4266H1.0957C0.491016 34.4266 0.00195312 33.9375 0.00195312 33.3328V31.2297C0.00195312 30.625 0.491016 30.1359 1.0957 30.1359C1.70039 30.1359 2.18945 30.625 2.18945 31.2297V32.2391H21.1598V23.6797H2.18945V24.7703C2.18945 25.375 1.70039 25.8641 1.0957 25.8641C0.491016 25.8641 0.00195312 25.375 0.00195312 24.7703V22.5859C0.00195312 21.9812 0.491016 21.4922 1.0957 21.4922H22.2535C22.8582 21.4922 23.3473 21.9812 23.3473 22.5859V33.3328C23.3473 33.9359 22.8582 34.4266 22.2535 34.4266Z" fill="white"/>
<path d="M11.6738 23.6796H1.0957C0.491016 23.6796 0.00195312 23.1906 0.00195312 22.5859V11.8406C0.00195312 11.2359 0.491016 10.7468 1.0957 10.7468H11.6738C12.2785 10.7468 12.7676 11.2359 12.7676 11.8406V22.5859C12.7676 23.1906 12.2785 23.6796 11.6738 23.6796ZM2.18945 21.4921H10.5801V12.9343H2.18945V21.4921Z" fill="white"/>
<path d="M11.6738 45.1718H1.0957C0.491016 45.1718 0.00195312 44.6828 0.00195312 44.0781V33.3328C0.00195312 32.7281 0.491016 32.239 1.0957 32.239H11.6738C12.2785 32.239 12.7676 32.7281 12.7676 33.3328V44.0781C12.7676 44.6812 12.2785 45.1718 11.6738 45.1718ZM2.18945 42.9843H10.5801V34.4265H2.18945V42.9843Z" fill="white"/>
<path d="M53.9898 45.1718H32.832C32.2273 45.1718 31.7383 44.6828 31.7383 44.0781V33.3328C31.7383 32.7281 32.2273 32.239 32.832 32.239H53.9898C54.5945 32.239 55.0836 32.7281 55.0836 33.3328V44.0781C55.0836 44.6828 54.5945 45.1718 53.9898 45.1718ZM33.9258 42.9843H52.8961V34.4265H33.9258V42.9843Z" fill="white"/>
<path d="M32.8316 45.1718H11.6738C11.0691 45.1718 10.5801 44.6828 10.5801 44.0781V33.3328C10.5801 32.7281 11.0691 32.239 11.6738 32.239H32.8316C33.4363 32.239 33.9254 32.7281 33.9254 33.3328V44.0781C33.9254 44.6828 33.4363 45.1718 32.8316 45.1718ZM12.7676 42.9843H31.7379V34.4265H12.7676V42.9843Z" fill="white"/>
<path d="M22.2535 42.9843H12.7691V34.4265H31.7379V42.9843H33.9254V33.3328C33.9254 32.7281 33.4363 32.239 32.8316 32.239H11.6738C11.0691 32.239 10.5801 32.7281 10.5801 33.3328V44.0781C10.5801 44.6828 11.0691 45.1718 11.6738 45.1718H21.1582V44.0781C21.1598 43.4734 21.6488 42.9843 22.2535 42.9843Z" fill="white"/>
<path d="M43.4117 42.9843H33.9258V44.078C33.9258 44.6827 33.4367 45.1718 32.832 45.1718H42.3164V53.7296H23.3477V45.1718H21.1602V54.8233C21.1602 55.428 21.6492 55.9171 22.2539 55.9171H43.4117C44.0164 55.9171 44.5055 55.428 44.5055 54.8233V44.078C44.5055 43.4733 44.0149 42.9843 43.4117 42.9843Z" fill="white"/>
<path d="M32.832 45.1718C33.4367 45.1718 33.9258 44.6827 33.9258 44.078V42.9843H31.7383H22.2539C21.6492 42.9843 21.1602 43.4733 21.1602 44.078V45.1718H23.3477H32.832Z" fill="white"/>
<path d="M54.3672 55.9187C54.2969 55.9187 54.225 55.9109 54.1547 55.8969C54.0844 55.8828 54.0156 55.8625 53.95 55.8344C53.8828 55.8078 53.8203 55.7734 53.7609 55.7344C53.7 55.6937 53.6453 55.6484 53.5938 55.5984C53.5438 55.5469 53.4984 55.4922 53.4578 55.4312C53.4188 55.3719 53.3844 55.3094 53.3578 55.2422C53.3297 55.1766 53.3094 55.1078 53.2953 55.0375C53.2813 54.9672 53.2734 54.8953 53.2734 54.825C53.2734 54.7531 53.2813 54.6812 53.2953 54.6109C53.3094 54.5406 53.3297 54.4719 53.3578 54.4062C53.3844 54.3406 53.4188 54.2766 53.4578 54.2172C53.4984 54.1578 53.5438 54.1016 53.5938 54.0516C53.6453 54 53.7 53.9547 53.7609 53.9141C53.8203 53.875 53.8828 53.8422 53.95 53.8141C54.0156 53.7875 54.0844 53.7656 54.1547 53.7516C54.2953 53.7234 54.4406 53.7234 54.5813 53.7516C54.6516 53.7656 54.7203 53.7875 54.7859 53.8141C54.8516 53.8422 54.9156 53.875 54.975 53.9141C55.0344 53.9547 55.0906 54 55.1406 54.0516C55.1922 54.1016 55.2375 54.1578 55.2766 54.2172C55.3172 54.2766 55.35 54.3406 55.3781 54.4062C55.4047 54.4719 55.425 54.5406 55.4391 54.6109C55.4547 54.6812 55.4609 54.7531 55.4609 54.825C55.4609 54.8953 55.4547 54.9672 55.4391 55.0375C55.425 55.1078 55.4047 55.1766 55.3781 55.2422C55.35 55.3094 55.3172 55.3719 55.2766 55.4312C55.2375 55.4922 55.1922 55.5469 55.1406 55.5984C55.0906 55.6484 55.0344 55.6937 54.975 55.7344C54.9156 55.7734 54.8516 55.8078 54.7859 55.8344C54.7203 55.8625 54.6516 55.8828 54.5813 55.8969C54.5109 55.9109 54.4391 55.9187 54.3672 55.9187Z" fill="white"/>
<path d="M64.5689 55.9187H58.0283C57.4236 55.9187 56.9346 55.4296 56.9346 54.8249C56.9346 54.2202 57.4236 53.7312 58.0283 53.7312H63.4752V45.1733H44.5049V53.7312H50.708C51.3127 53.7312 51.8018 54.2202 51.8018 54.8249C51.8018 55.4296 51.3127 55.9187 50.708 55.9187H43.4111C42.8064 55.9187 42.3174 55.4296 42.3174 54.8249V44.0796C42.3174 43.4749 42.8064 42.9858 43.4111 42.9858H64.5689C65.1736 42.9858 65.6627 43.4749 65.6627 44.0796V54.8249C65.6627 55.428 65.1721 55.9187 64.5689 55.9187Z" fill="white"/>
<path d="M22.2535 55.9187H1.0957C0.491016 55.9187 0.00195312 55.4296 0.00195312 54.8249V44.0796C0.00195312 43.4749 0.491016 42.9858 1.0957 42.9858H22.2535C22.8582 42.9858 23.3473 43.4749 23.3473 44.0796V54.8249C23.3473 55.428 22.8582 55.9187 22.2535 55.9187ZM2.18945 53.7312H21.1598V45.1733H2.18945V53.7312Z" fill="white"/>
<path d="M32.8316 23.6796H11.6738C11.0691 23.6796 10.5801 23.1906 10.5801 22.5859V11.8406C10.5801 11.2359 11.0691 10.7468 11.6738 10.7468H32.8316C33.4363 10.7468 33.9254 11.2359 33.9254 11.8406V17.8031C33.9254 18.4078 33.4363 18.8968 32.8316 18.8968C32.227 18.8968 31.7379 18.4078 31.7379 17.8031V12.9328H12.7676V21.4906H32.8316C33.4363 21.4906 33.9254 21.9796 33.9254 22.5843C33.9254 23.189 33.4363 23.6796 32.8316 23.6796Z" fill="white"/>
<path d="M22.2531 12.9344H1.09375C0.489063 12.9344 0 12.4453 0 11.8406V1.09375C0 0.489062 0.489063 0 1.09375 0H22.2531C22.8578 0 23.3469 0.489062 23.3469 1.09375V11.8391C23.3469 12.4437 22.8562 12.9344 22.2531 12.9344ZM2.1875 10.7469H21.1594V2.1875H2.1875V10.7469Z" fill="white"/>
<path d="M1.0957 28.9985C1.02383 28.9985 0.951953 28.9922 0.881641 28.9782C0.812891 28.9641 0.744141 28.9422 0.676953 28.9157C0.611328 28.8875 0.547265 28.8547 0.489453 28.8141C0.428515 28.775 0.372266 28.7297 0.322266 28.6782C0.272266 28.6282 0.226953 28.5719 0.186328 28.5126C0.147266 28.4532 0.112891 28.3891 0.0863283 28.3235C0.0582033 28.2579 0.0378905 28.1891 0.023828 28.1188C0.00976553 28.0485 0.00195312 27.9766 0.00195312 27.9047C0.00195312 27.8344 0.00976553 27.7625 0.023828 27.6907C0.0378905 27.6219 0.0582033 27.5532 0.0863283 27.4875C0.112891 27.4204 0.147266 27.3579 0.186328 27.2985C0.226953 27.2376 0.272266 27.1813 0.322266 27.1313C0.372266 27.0813 0.428515 27.036 0.489453 26.9954C0.547265 26.9563 0.611328 26.9219 0.676953 26.8954C0.744141 26.8688 0.812891 26.8469 0.881641 26.8329C1.02383 26.8047 1.16758 26.8047 1.30977 26.8329C1.37852 26.8469 1.44883 26.8688 1.51445 26.8954C1.58008 26.9219 1.64414 26.9563 1.70195 26.9954C1.76289 27.036 1.81914 27.0813 1.86914 27.1313C1.91914 27.1813 1.96445 27.2376 2.00508 27.2985C2.04414 27.3579 2.07852 27.4204 2.10508 27.4875C2.1332 27.5532 2.15352 27.6219 2.16758 27.6907C2.1832 27.7625 2.18945 27.8344 2.18945 27.9047C2.18945 27.9766 2.1832 28.0485 2.16758 28.1188C2.15352 28.1891 2.1332 28.2579 2.10508 28.3235C2.07852 28.3891 2.04414 28.4532 2.00508 28.5126C1.96445 28.5719 1.91914 28.6282 1.86914 28.6782C1.81914 28.7297 1.76289 28.775 1.70195 28.8141C1.64414 28.8547 1.58008 28.8875 1.51445 28.9157C1.44883 28.9422 1.37852 28.9641 1.30977 28.9782C1.23945 28.9922 1.16758 28.9985 1.0957 28.9985Z" fill="white"/>
<path d="M43.4108 34.4266H22.2529C21.6482 34.4266 21.1592 33.9375 21.1592 33.3328V22.5859C21.1592 21.9812 21.6482 21.4922 22.2529 21.4922H43.4108C44.0154 21.4922 44.5045 21.9812 44.5045 22.5859V33.3328C44.5045 33.9359 44.0139 34.4266 43.4108 34.4266ZM23.3467 32.2391H42.317V23.6797H23.3467V32.2391Z" fill="white"/>
<path d="M45.26 19V9.004H51.574V10.754H47.374V12.84H48.214C49.1567 12.84 49.9267 12.9707 50.524 13.232C51.1307 13.4933 51.5787 13.8527 51.868 14.31C52.1573 14.7673 52.302 15.29 52.302 15.878C52.302 16.8673 51.9707 17.6373 51.308 18.188C50.6547 18.7293 49.6093 19 48.172 19H45.26ZM47.374 17.264H48.088C48.732 17.264 49.236 17.1613 49.6 16.956C49.9733 16.7507 50.16 16.3913 50.16 15.878C50.16 15.346 49.9593 14.996 49.558 14.828C49.1567 14.66 48.6107 14.576 47.92 14.576H47.374V17.264ZM63.2597 13.988C63.2597 15.024 63.0871 15.9293 62.7417 16.704C62.4057 17.4693 61.8877 18.0667 61.1877 18.496C60.4877 18.9253 59.5917 19.14 58.4997 19.14C57.4171 19.14 56.5211 18.9253 55.8117 18.496C55.1117 18.0667 54.5891 17.4647 54.2437 16.69C53.9077 15.9153 53.7397 15.01 53.7397 13.974C53.7397 12.938 53.9077 12.0373 54.2437 11.272C54.5891 10.5067 55.1117 9.914 55.8117 9.494C56.5211 9.06467 57.4217 8.85 58.5137 8.85C59.5964 8.85 60.4877 9.06467 61.1877 9.494C61.8877 9.914 62.4057 10.5113 62.7417 11.286C63.0871 12.0513 63.2597 12.952 63.2597 13.988ZM55.9657 13.988C55.9657 15.0333 56.1664 15.8593 56.5677 16.466C56.9691 17.0633 57.6131 17.362 58.4997 17.362C59.4051 17.362 60.0537 17.0633 60.4457 16.466C60.8377 15.8593 61.0337 15.0333 61.0337 13.988C61.0337 12.9333 60.8377 12.1073 60.4457 11.51C60.0537 10.9127 59.4097 10.614 58.5137 10.614C57.6177 10.614 56.9691 10.9127 56.5677 11.51C56.1664 12.1073 55.9657 12.9333 55.9657 13.988ZM68.5223 9.004C69.8103 9.004 70.7483 9.284 71.3363 9.844C71.9336 10.3947 72.2323 11.1553 72.2323 12.126C72.2323 12.7047 72.111 13.2507 71.8683 13.764C71.6256 14.268 71.2196 14.674 70.6503 14.982C70.0903 15.29 69.325 15.444 68.3543 15.444H67.4443V19H65.3303V9.004H68.5223ZM68.4103 10.74H67.4443V13.708H68.1443C68.7416 13.708 69.213 13.5913 69.5583 13.358C69.913 13.1153 70.0903 12.728 70.0903 12.196C70.0903 11.2253 69.5303 10.74 68.4103 10.74ZM79.8753 19H74.1213V9.004H79.8753V10.74H76.2353V12.938H79.6233V14.674H76.2353V17.25H79.8753V19ZM90.1033 19H87.6953L84.0693 13.932V19H81.9553V9.004H84.0693V13.848L87.6533 9.004H89.9073L86.2673 13.806L90.1033 19ZM95.3301 10.628C94.5181 10.628 93.8975 10.9313 93.4681 11.538C93.0388 12.1447 92.8241 12.9753 92.8241 14.03C92.8241 15.094 93.0201 15.92 93.4121 16.508C93.8135 17.0867 94.4528 17.376 95.3301 17.376C95.7408 17.376 96.1468 17.3293 96.5481 17.236C96.9588 17.1427 97.4021 17.012 97.8781 16.844V18.622C97.4395 18.7993 97.0055 18.93 96.5761 19.014C96.1468 19.098 95.6661 19.14 95.1341 19.14C94.1075 19.14 93.2581 18.93 92.5861 18.51C91.9235 18.0807 91.4335 17.4833 91.1161 16.718C90.7988 15.9433 90.6401 15.0427 90.6401 14.016C90.6401 13.008 90.8221 12.1167 91.1861 11.342C91.5501 10.5673 92.0775 9.96067 92.7681 9.522C93.4681 9.08333 94.3221 8.864 95.3301 8.864C95.8248 8.864 96.3195 8.92933 96.8141 9.06C97.3181 9.18133 97.7988 9.34933 98.2561 9.564L97.5701 11.286C97.1968 11.1087 96.8188 10.9547 96.4361 10.824C96.0628 10.6933 95.6941 10.628 95.3301 10.628Z" fill="white"/>
<path d="M70.26 38V28.004H76.574V29.754H72.374V31.84H73.214C74.1567 31.84 74.9267 31.9707 75.524 32.232C76.1307 32.4933 76.5787 32.8527 76.868 33.31C77.1573 33.7673 77.302 34.29 77.302 34.878C77.302 35.8673 76.9707 36.6373 76.308 37.188C75.6547 37.7293 74.6093 38 73.172 38H70.26ZM72.374 36.264H73.088C73.732 36.264 74.236 36.1613 74.6 35.956C74.9733 35.7507 75.16 35.3913 75.16 34.878C75.16 34.346 74.9593 33.996 74.558 33.828C74.1567 33.66 73.6107 33.576 72.92 33.576H72.374V36.264ZM87.2097 28.004L84.1157 35.074C83.8357 35.7087 83.5371 36.2593 83.2197 36.726C82.9117 37.1833 82.5151 37.5333 82.0297 37.776C81.5444 38.0187 80.9097 38.14 80.1257 38.14C79.8831 38.14 79.6171 38.1213 79.3277 38.084C79.0384 38.0467 78.7724 37.9953 78.5297 37.93V36.11C78.7537 36.2033 79.0011 36.2687 79.2717 36.306C79.5424 36.3433 79.7944 36.362 80.0277 36.362C80.4944 36.362 80.8304 36.25 81.0357 36.026C81.2411 35.7927 81.4044 35.5127 81.5257 35.186L78.0677 28.004H80.3077L82.1697 32.33C82.2351 32.47 82.3237 32.6707 82.4357 32.932C82.5477 33.184 82.6317 33.3987 82.6877 33.576H82.7577C82.8137 33.408 82.8931 33.1887 82.9957 32.918C83.1077 32.6473 83.2057 32.4093 83.2897 32.204L85.0257 28.004H87.2097ZM95.5997 28.004V36.236H96.9297V40.912H94.8857V38H88.6277V40.912H86.5837V36.236H87.3537C87.7083 35.536 88.0397 34.7893 88.3477 33.996C88.6557 33.1933 88.931 32.302 89.1737 31.322C89.4257 30.342 89.6263 29.236 89.7757 28.004H95.5997ZM93.4857 29.768H91.4557C91.3717 30.412 91.2363 31.112 91.0497 31.868C90.8723 32.6147 90.6577 33.366 90.4057 34.122C90.1537 34.8687 89.8783 35.5733 89.5797 36.236H93.4857V29.768Z" fill="white"/>
</svg>
