<svg width="76" height="63" viewBox="0 0 76 63" fill="none" xmlns="http://www.w3.org/2000/svg">
<path d="M16.8125 54.5281C16.2078 54.5281 15.7187 54.0391 15.7187 53.4344C15.7187 49.7031 12.6844 46.6688 8.95312 46.6688C5.22188 46.6688 2.1875 49.7031 2.1875 53.4344C2.1875 54.0391 1.69844 54.5281 1.09375 54.5281C0.489062 54.5281 0 54.0391 0 53.4344V8.95313C0 4.01563 4.01562 0 8.95312 0C13.8906 0 17.9062 4.01563 17.9062 8.95313V53.4344C17.9062 54.0391 17.4172 54.5281 16.8125 54.5281ZM8.95312 44.4813C11.6516 44.4813 14.0766 45.6813 15.7187 47.5766V8.95313C15.7187 5.22188 12.6844 2.1875 8.95312 2.1875C5.22188 2.1875 2.1875 5.22188 2.1875 8.95313V47.5766C3.82969 45.6813 6.25469 44.4813 8.95312 44.4813Z" fill="#414042"/>
<path d="M74.6875 62.3875C74.0828 62.3875 73.5938 61.8984 73.5938 61.2938V10.0469H17.9062V53.4344C17.9062 54.0391 17.4172 54.5281 16.8125 54.5281C16.2078 54.5281 15.7188 54.0391 15.7188 53.4344C15.7188 49.7031 12.6844 46.6688 8.95312 46.6688C5.22188 46.6688 2.1875 49.7031 2.1875 53.4344C2.1875 57.1656 5.22188 60.2 8.95312 60.2H68.4328C69.0375 60.2 69.5266 60.6891 69.5266 61.2938C69.5266 61.8984 69.0375 62.3875 68.4328 62.3875H8.95312C4.01719 62.3875 0 58.3719 0 53.4344C0 48.4969 4.01719 44.4813 8.95312 44.4813C11.6516 44.4813 14.0766 45.6813 15.7188 47.5766V8.95313C15.7188 8.34844 16.2078 7.85938 16.8125 7.85938H74.6875C75.2922 7.85938 75.7812 8.34844 75.7812 8.95313V61.2938C75.7812 61.8984 75.2922 62.3875 74.6875 62.3875Z" fill="#414042"/>
<path d="M33.4062 28.0188H22.7141C22.1094 28.0188 21.6203 27.5298 21.6203 26.9251V16.2329C21.6203 15.6282 22.1094 15.1392 22.7141 15.1392H33.4062C34.0109 15.1392 34.5 15.6282 34.5 16.2329V26.9251C34.5 27.5298 34.0094 28.0188 33.4062 28.0188ZM23.8078 25.8313H32.3125V17.3267H23.8078V25.8313Z" fill="#414042"/>
<path d="M42.6609 54.589H34.5625C33.9578 54.589 33.4687 54.0999 33.4687 53.4952C33.4687 52.8905 33.9578 52.4015 34.5625 52.4015H41.5672V34.6421H23.8078V52.4015H25.2672C25.8719 52.4015 26.3609 52.8905 26.3609 53.4952C26.3609 54.0999 25.8719 54.589 25.2672 54.589H22.7141C22.1094 54.589 21.6203 54.0999 21.6203 53.4952V33.5483C21.6203 32.9437 22.1094 32.4546 22.7141 32.4546H42.6609C43.2656 32.4546 43.7547 32.9437 43.7547 33.5483V53.4952C43.7547 54.0983 43.2656 54.589 42.6609 54.589Z" fill="#538AC1"/>
<path d="M29.3969 54.5894C29.1078 54.5894 28.8265 54.4722 28.6234 54.269C28.5734 54.2175 28.5265 54.1628 28.4875 54.1019C28.4484 54.0425 28.414 53.98 28.3859 53.9128C28.3594 53.8472 28.339 53.7784 28.325 53.7081C28.3094 53.6378 28.3031 53.5659 28.3031 53.4956C28.3031 53.4237 28.3094 53.3519 28.325 53.2815C28.339 53.2112 28.3594 53.1425 28.3859 53.0769C28.414 53.0112 28.4484 52.9472 28.4875 52.8878C28.5265 52.8284 28.5734 52.7722 28.6234 52.7222C28.8265 52.5175 29.1078 52.4019 29.3969 52.4019C29.6844 52.4019 29.9656 52.5175 30.1703 52.7222C30.2203 52.7722 30.2656 52.8284 30.3062 52.8878C30.3453 52.9472 30.3797 53.0112 30.4062 53.0769C30.4344 53.1425 30.4547 53.2112 30.4687 53.2815C30.4828 53.3519 30.4906 53.4237 30.4906 53.4956C30.4906 53.5659 30.4828 53.6378 30.4687 53.7081C30.4547 53.7784 30.4344 53.8472 30.4062 53.9128C30.3797 53.98 30.3453 54.0425 30.3062 54.1019C30.2656 54.1628 30.2203 54.2175 30.1703 54.269C29.9656 54.4722 29.6844 54.5894 29.3969 54.5894Z" fill="#538AC1"/>
<path d="M66.1188 28.0188H37.8906C37.2859 28.0188 36.7969 27.5298 36.7969 26.9251V16.2329C36.7969 15.6282 37.2859 15.1392 37.8906 15.1392H51.7031C52.3078 15.1392 52.7969 15.6282 52.7969 16.2329C52.7969 16.8376 52.3078 17.3267 51.7031 17.3267H38.9844V25.8313H65.025V17.3267H59.975C59.3703 17.3267 58.8812 16.8376 58.8812 16.2329C58.8812 15.6282 59.3703 15.1392 59.975 15.1392H66.1188C66.7234 15.1392 67.2125 15.6282 67.2125 16.2329V26.9251C67.2125 27.5298 66.7234 28.0188 66.1188 28.0188Z" fill="#538AC1"/>
<path d="M55.5875 17.328C55.5156 17.328 55.4438 17.3202 55.3734 17.3062C55.3031 17.2921 55.2344 17.2718 55.1687 17.2437C55.1031 17.2171 55.0391 17.1827 54.9797 17.1437C54.9203 17.103 54.8641 17.0577 54.8141 17.0077C54.7625 16.9562 54.7172 16.9015 54.6781 16.8405C54.6375 16.7812 54.6047 16.7187 54.5766 16.653C54.55 16.5858 54.5281 16.5171 54.5141 16.4483C54.5 16.3765 54.4922 16.3046 54.4922 16.2343C54.4922 16.1624 54.5 16.0905 54.5141 16.0202C54.5281 15.9499 54.55 15.8812 54.5766 15.8155C54.6047 15.7499 54.6375 15.6858 54.6781 15.6265C54.7172 15.5671 54.7625 15.5108 54.8141 15.4608C54.8641 15.4108 54.9203 15.364 54.9797 15.3249C55.0391 15.2858 55.1031 15.2515 55.1687 15.2233C55.2344 15.1968 55.3031 15.1765 55.3734 15.1624C55.5141 15.1327 55.6594 15.1327 55.8 15.1624C55.8703 15.1765 55.9391 15.1968 56.0047 15.2233C56.0703 15.2515 56.1344 15.2858 56.1938 15.3249C56.2531 15.364 56.3094 15.4108 56.3594 15.4608C56.4109 15.5108 56.4562 15.5671 56.4969 15.6265C56.5359 15.6858 56.5688 15.7499 56.5969 15.8155C56.6234 15.8812 56.6453 15.9499 56.6594 16.0202C56.6734 16.0905 56.6797 16.1624 56.6797 16.2343C56.6797 16.3046 56.6734 16.3765 56.6594 16.4483C56.6453 16.5171 56.6234 16.5858 56.5969 16.653C56.5688 16.7187 56.5359 16.7812 56.4969 16.8405C56.4562 16.9015 56.4109 16.9562 56.3594 17.0077C56.3094 17.0577 56.2531 17.103 56.1938 17.1437C56.1344 17.1827 56.0703 17.2171 56.0047 17.2437C55.9391 17.2718 55.8703 17.2921 55.8 17.3062C55.7297 17.3202 55.6578 17.328 55.5875 17.328Z" fill="#538AC1"/>
<path d="M55.4265 55.1062H49.4422C48.8375 55.1062 48.3484 54.6171 48.3484 54.0124V33.5483C48.3484 32.9437 48.8375 32.4546 49.4422 32.4546H55.4265C56.0312 32.4546 56.5203 32.9437 56.5203 33.5483V54.014C56.5203 54.6171 56.0312 55.1062 55.4265 55.1062ZM50.5375 52.9187H54.3344V34.6421H50.5375V52.9187Z" fill="#414042"/>
<path d="M66.1187 55.1062H60.1344C59.5297 55.1062 59.0406 54.6171 59.0406 54.0124V33.5483C59.0406 32.9437 59.5297 32.4546 60.1344 32.4546H66.1187C66.7234 32.4546 67.2125 32.9437 67.2125 33.5483V54.014C67.2125 54.6171 66.7234 55.1062 66.1187 55.1062ZM61.2281 52.9187H65.025V34.6421H61.2281V52.9187Z" fill="#414042"/>
<path d="M8.4859 40.3921C7.88121 40.3921 7.39215 39.903 7.39215 39.2983V10.1499C7.39215 9.54521 7.88121 9.05615 8.4859 9.05615C9.09059 9.05615 9.57965 9.54521 9.57965 10.1499V39.2983C9.57965 39.903 9.08902 40.3921 8.4859 40.3921Z" fill="#414042"/>
<path d="M8.4859 7.7939C8.19684 7.7939 7.91559 7.67672 7.71246 7.47359C7.50934 7.2689 7.39215 6.98765 7.39215 6.70015C7.39215 6.41109 7.50934 6.12984 7.71246 5.92672C7.96559 5.67203 8.34371 5.5564 8.69996 5.62672C8.76871 5.64078 8.83746 5.66265 8.90465 5.68921C8.97027 5.71734 9.03277 5.75015 9.09215 5.79078C9.15309 5.82984 9.20934 5.87515 9.25934 5.92672C9.46246 6.12984 9.57965 6.41109 9.57965 6.70015C9.57965 6.98765 9.46246 7.2689 9.25934 7.47359C9.20934 7.52359 9.15309 7.5689 9.09215 7.60953C9.03277 7.64859 8.97027 7.68296 8.90465 7.70953C8.83746 7.73765 8.76871 7.75797 8.69996 7.77203C8.62965 7.78609 8.55777 7.7939 8.4859 7.7939Z" fill="#414042"/>
</svg>
